# xmcd
#
# Track frame offsets:
#	182
#	18717
#	33837
#	49257
#	62367
#	75495
#	87375
#	104742
#	120865
#	133120
#
# Disc length: 1953
#
# Revision: 3
# Processed by: cddbd v1.5.1PL0 Copyright (c) Steve Scherf et al.
# Submitted via: DiscPlay 4.0.4
# Normalized: r1:TSWAP
#
DISCID=7b079f0a
DTITLE=Various Artist - Crown Royal Country Hits Collection
DYEAR=1900
DGENRE=
TTITLE0=Juice Newton - The Sweetest Thing (I've Ever Known)
TTITLE1=Jessi Colter - I'm Not Lisa
TTITLE2=Crash Craddock - If I Could Write A Song As Beautiful As You
TTITLE3=Kenny Dale - Only Love Can Break A Heart
TTITLE4=Crystal Gayle - Talking In Your Sleep
TTITLE5=Crystal Gayle - Don't It Make My Brown Eyes Blue
TTITLE6=Ed Bruce - Mammas Don't Let Your Babies Grow Up To Be Cowboys
TTITLE7=Billie Jo Spears - Blanket On The Ground
TTITLE8=Tayna Tucker - Strong Enough To Bend
TTITLE9=Mel McDaniel - Baby's Got Her Blue Jeans On
EXTD=
EXTT0=
EXTT1=
EXTT2=
EXTT3=
EXTT4=
EXTT5=
EXTT6=
EXTT7=
EXTT8=
EXTT9=
PLAYORDER=
